<?xml version="1.0" standalone="no"?>
<!DOCTYPE svg PUBLIC "-//W3C//DTD SVG 20010904//EN"
 "http://www.w3.org/TR/2001/REC-SVG-20010904/DTD/svg10.dtd">
<svg version="1.0" xmlns="http://www.w3.org/2000/svg"
 width="103.000000pt" height="105.000000pt" viewBox="0 0 103.000000 105.000000"
 preserveAspectRatio="xMidYMid meet">

<g transform="translate(0.000000,105.000000) scale(0.100000,-0.100000)"
fill="#000000" stroke="none">
<path d="M155 1008 c11 -52 31 -83 96 -152 76 -82 125 -113 279 -177 218 -92
377 -202 473 -329 l26 -35 1 363 0 362 -441 0 -441 0 7 -32z"/>
<path d="M0 406 l0 -406 436 0 437 0 -5 78 c-10 181 -138 309 -438 440 -189
82 -265 129 -356 219 l-74 74 0 -405z"/>
</g>
</svg>
